# Blender 4.4.0
# www.blender.org
mtllib SciFiFloor.mtl
o Cube
v 0.100000 0.000000 -0.876569
v 0.876569 0.000000 0.100000
v -0.382683 0.000000 -0.923880
v 2.000000 0.050000 -2.000000
v -0.382683 0.050000 -0.923880
v 2.000000 -0.050000 -2.000000
v -0.100000 0.000000 -0.876569
v 0.876569 0.000000 -0.100000
v 0.382683 0.000000 -0.923880
v 2.000000 0.050000 2.000000
v 0.382683 0.050000 -0.923880
v 2.000000 -0.050000 2.000000
v -0.876569 0.000000 0.100000
v -2.000000 0.050000 -2.000000
v 0.100000 0.000000 0.876569
v 0.923880 0.000000 -0.382683
v -2.000000 -0.050000 -2.000000
v 0.923880 0.050000 -0.382683
v -0.876569 0.000000 -0.100000
v -2.000000 0.050000 2.000000
v -0.100000 0.000000 0.876569
v 0.923880 0.000000 0.382683
v 0.923880 0.050000 0.382683
v -2.000000 -0.050000 2.000000
v 0.382683 0.000000 0.923880
v 0.382683 0.050000 0.923880
v -0.382683 0.000000 0.923880
v -0.382683 0.050000 0.923880
v -0.923880 0.000000 0.382683
v -0.923880 0.050000 0.382683
v -0.923880 0.000000 -0.382683
v -0.923880 0.050000 -0.382683
v -0.100000 0.050000 2.000000
v 0.100000 0.000000 2.000000
v 0.100000 0.050000 2.000000
v -0.100000 0.000000 2.000000
v -2.000000 0.000000 0.100000
v -2.000000 0.050000 0.100000
v -2.000000 0.050000 -0.100000
v -2.000000 0.000000 -0.100000
v 2.000000 0.050000 0.100000
v 2.000000 0.000000 -0.100000
v 2.000000 0.050000 -0.100000
v 2.000000 0.000000 0.100000
v -0.100000 0.000000 -2.000000
v -0.100000 0.050000 -2.000000
v 0.100000 0.050000 -2.000000
v 0.100000 0.000000 -2.000000
v 0.100000 0.050000 -0.923880
v -0.100000 0.050000 -0.923880
v -0.100000 0.000000 -0.923880
v 0.100000 0.000000 -0.923880
v 0.923880 0.050000 0.100000
v 0.923880 0.050000 -0.100000
v 0.923880 0.000000 -0.100000
v 0.923880 0.000000 0.100000
v -0.100000 0.050000 0.923880
v 0.100000 0.050000 0.923880
v 0.100000 0.000000 0.923880
v -0.100000 0.000000 0.923880
v -0.923880 0.050000 -0.100000
v -0.923880 0.050000 0.100000
v -0.923880 0.000000 0.100000
v -0.923880 0.000000 -0.100000
vn -0.0000 1.0000 -0.0000
vn -0.0000 -0.0000 1.0000
vn -1.0000 -0.0000 -0.0000
vn -0.0000 -1.0000 -0.0000
vn 1.0000 -0.0000 -0.0000
vn -0.0000 -0.0000 -1.0000
vn -0.7071 -0.0000 0.7071
vn -0.7071 -0.0000 -0.7071
vn 0.7071 -0.0000 -0.7071
vn 0.7071 -0.0000 0.7071
vt 0.807742 0.618750
vt 0.807743 0.601082
vt 0.773918 0.567258
vt 0.756250 0.567258
vt 0.756250 0.500000
vt 0.875000 0.500000
vt 0.875000 0.618750
vt 0.743750 0.500000
vt 0.743750 0.567258
vt 0.726082 0.567258
vt 0.692258 0.601082
vt 0.692258 0.618750
vt 0.625000 0.618750
vt 0.625000 0.500000
vt 0.756250 0.750000
vt 0.756250 0.682742
vt 0.773918 0.682742
vt 0.807742 0.648918
vt 0.807742 0.631250
vt 0.875000 0.631250
vt 0.875000 0.750000
vt 0.692258 0.631250
vt 0.692258 0.648918
vt 0.726082 0.682742
vt 0.743750 0.682742
vt 0.743750 0.750000
vt 0.625000 0.750000
vt 0.625000 0.631250
vt 0.625000 1.000000
vt 0.375000 1.000000
vt 0.375000 0.750000
vt 0.625000 0.868750
vt 0.500000 0.868750
vt 0.500000 0.881250
vt 0.625000 0.881250
vt 0.625000 0.131250
vt 0.625000 0.250000
vt 0.375000 0.250000
vt 0.375000 0.000000
vt 0.625000 0.000000
vt 0.625000 0.118750
vt 0.500000 0.118750
vt 0.500000 0.131250
vt 0.125000 0.500000
vt 0.375000 0.500000
vt 0.125000 0.750000
vt 0.500000 0.618750
vt 0.500000 0.631250
vt 0.625000 0.631250
vt 0.625000 0.381250
vt 0.625000 0.368750
vt 0.500000 0.368750
vt 0.500000 0.381250
vt 1.000000 1.000000
vt 1.000000 0.500000
vt 0.953832 0.500000
vt 0.953832 1.000000
vt 0.875000 1.000000
vt 0.921168 1.000000
vt 0.921168 0.500000
vt 0.750000 0.500000
vt 0.750000 1.000000
vt 0.703832 0.500000
vt 0.703832 1.000000
vt 0.671168 1.000000
vt 0.671168 0.500000
vt 0.500000 1.000000
vt 0.500000 0.500000
vt 0.453832 0.500000
vt 0.453832 1.000000
vt 0.421168 1.000000
vt 0.421168 0.500000
vt 0.250000 0.500000
vt 0.250000 1.000000
vt 0.203832 0.500000
vt 0.203832 1.000000
vt 0.125000 1.000000
vt 0.171168 1.000000
vt 0.171168 0.500000
vt 0.000000 0.500000
vt 0.000000 1.000000
vt 0.535963 0.312680
vt 0.510000 0.250000
vt 0.580294 0.080294
vt 0.642974 0.054332
vt 0.647319 0.064822
vt 0.691665 0.046453
vt 0.687320 0.035963
vt 0.750000 0.010000
vt 0.919706 0.080294
vt 0.945668 0.142974
vt 0.935178 0.147319
vt 0.953547 0.191666
vt 0.964037 0.187320
vt 0.990000 0.250000
vt 0.919706 0.419706
vt 0.857026 0.445668
vt 0.852681 0.435178
vt 0.808334 0.453547
vt 0.812680 0.464037
vt 0.750000 0.490000
vt 0.580294 0.419706
vt 0.554332 0.357026
vt 0.564822 0.352681
vt 0.546453 0.308334
vt 0.375000 0.260524
vt 0.375000 0.499904
vt 0.625000 0.499904
vt 0.625000 0.260524
vt 0.625000 0.989476
vt 0.625000 0.750096
vt 0.375000 0.750096
vt 0.375000 0.989476
vt 0.374904 0.750000
vt 0.374904 0.500000
vt 0.135524 0.500000
vt 0.135524 0.750000
vt 0.625000 0.250096
vt 0.375000 0.250096
vt 0.375000 0.489476
vt 0.625000 0.489476
vt 0.375000 0.760524
vt 0.375000 0.999904
vt 0.625000 0.999904
vt 0.625000 0.760524
vt 0.125096 0.500000
vt 0.125096 0.750000
vt 0.364476 0.750000
vt 0.364476 0.500000
s 0
usemtl Ground
f 61/1/1 32/2/1 5/3/1 50/4/1 46/5/1 14/6/1 39/7/1
f 47/8/1 49/9/1 11/10/1 18/11/1 54/12/1 43/13/1 4/14/1
f 33/15/1 57/16/1 28/17/1 30/18/1 62/19/1 38/20/1 20/21/1
f 53/22/1 23/23/1 26/24/1 58/25/1 35/26/1 10/27/1 41/28/1
f 20/29/2 24/30/2 12/31/2 10/27/2 35/32/2 34/33/2 36/34/2 33/35/2
f 39/36/3 14/37/3 17/38/3 24/39/3 20/40/3 38/41/3 37/42/3 40/43/3
f 17/44/4 6/45/4 12/31/4 24/46/4
f 10/27/5 12/31/5 6/45/5 4/14/5 43/13/5 42/47/5 44/48/5 41/49/5
f 47/50/6 4/14/6 6/45/6 17/38/6 14/37/6 46/51/6 45/52/6 48/53/6
f 5/54/2 3/55/2 51/56/2 50/57/2
f 9/6/2 11/58/2 49/59/2 52/60/2
f 11/58/7 9/6/7 16/61/7 18/62/7
f 18/62/3 16/61/3 55/63/3 54/64/3
f 22/14/3 23/29/3 53/65/3 56/66/3
f 26/67/8 23/29/8 22/14/8 25/68/8
f 26/67/6 25/68/6 59/69/6 58/70/6
f 27/45/6 28/30/6 57/71/6 60/72/6
f 27/45/9 29/73/9 30/74/9 28/30/9
f 30/74/5 29/73/5 63/75/5 62/76/5
f 31/44/5 32/77/5 61/78/5 64/79/5
f 31/44/10 3/80/10 5/81/10 32/77/10
f 63/82/1 29/83/1 27/84/1 60/85/1 21/86/1 15/87/1 59/88/1 25/89/1 22/90/1 56/91/1 2/92/1 8/93/1 55/94/1 16/95/1 9/96/1 52/97/1 1/98/1 7/99/1 51/100/1 3/101/1 31/102/1 64/103/1 19/104/1 13/105/1
f 51/100/1 7/99/1 1/98/1 52/97/1
f 55/94/1 8/93/1 2/92/1 56/91/1
f 59/88/1 15/87/1 21/86/1 60/85/1
f 63/82/1 13/105/1 19/104/1 64/103/1
f 55/106/2 42/107/2 43/108/2 54/109/2
f 53/110/6 41/111/6 44/112/6 56/113/6
f 44/114/1 42/115/1 55/116/1 56/117/1
f 39/118/2 40/119/2 64/120/2 61/121/2
f 63/122/6 37/123/6 38/124/6 62/125/6
f 40/126/1 37/127/1 63/128/1 64/129/1
f 51/45/5 45/45/5 46/37/5 50/37/5
f 49/27/3 47/27/3 48/30/3 52/30/3
f 52/117/1 48/114/1 45/115/1 51/116/1
f 33/37/5 36/45/5 60/45/5 57/37/5
f 59/30/3 34/30/3 35/27/3 58/27/3
f 60/129/1 36/126/1 34/127/1 59/128/1
o Floor_Oct
v -0.363549 0.000000 -0.877686
v -0.363549 0.050000 -0.877686
v 0.363549 0.000000 -0.877686
v 0.363549 0.050000 -0.877686
v 0.877686 0.000000 -0.363549
v 0.877686 0.050000 -0.363549
v 0.877686 0.000000 0.363549
v 0.877686 0.050000 0.363549
v 0.363549 0.000000 0.877686
v 0.363549 0.050000 0.877686
v -0.363549 0.000000 0.877686
v -0.363549 0.050000 0.877686
v -0.877686 0.000000 0.363549
v -0.877686 0.050000 0.363549
v -0.877686 0.000000 -0.363549
v -0.877686 0.050000 -0.363549
vn -0.0000 -0.0000 -1.0000
vn 0.7071 -0.0000 -0.7071
vn 1.0000 -0.0000 -0.0000
vn 0.7071 -0.0000 0.7071
vn -0.0000 -0.0000 1.0000
vn -0.7071 -0.0000 0.7071
vn -0.0000 1.0000 -0.0000
vn -1.0000 -0.0000 -0.0000
vn -0.7071 -0.0000 -0.7071
vn -0.0000 -1.0000 -0.0000
vt 1.000000 0.500000
vt 1.000000 1.000000
vt 0.875000 1.000000
vt 0.875000 0.500000
vt 0.750000 1.000000
vt 0.750000 0.500000
vt 0.625000 1.000000
vt 0.625000 0.500000
vt 0.500000 1.000000
vt 0.500000 0.500000
vt 0.375000 1.000000
vt 0.375000 0.500000
vt 0.250000 1.000000
vt 0.250000 0.500000
vt 0.419706 0.419706
vt 0.250000 0.490000
vt 0.080294 0.419706
vt 0.010000 0.250000
vt 0.080294 0.080294
vt 0.250000 0.010000
vt 0.419706 0.080294
vt 0.490000 0.250000
vt 0.125000 1.000000
vt 0.125000 0.500000
vt 0.000000 1.000000
vt 0.000000 0.500000
vt 0.750000 0.490000
vt 0.919706 0.419706
vt 0.990000 0.250000
vt 0.919706 0.080294
vt 0.750000 0.010000
vt 0.580294 0.080294
vt 0.510000 0.250000
vt 0.580294 0.419706
s 0
usemtl Ground2
f 65/130/11 66/131/11 68/132/11 67/133/11
f 67/133/12 68/132/12 70/134/12 69/135/12
f 69/135/13 70/134/13 72/136/13 71/137/13
f 71/137/14 72/136/14 74/138/14 73/139/14
f 73/139/15 74/138/15 76/140/15 75/141/15
f 75/141/16 76/140/16 78/142/16 77/143/16
f 68/144/17 66/145/17 80/146/17 78/147/17 76/148/17 74/149/17 72/150/17 70/151/17
f 77/143/18 78/142/18 80/152/18 79/153/18
f 79/153/19 80/152/19 66/154/19 65/155/19
f 65/156/20 67/157/20 69/158/20 71/159/20 73/160/20 75/161/20 77/162/20 79/163/20
o Arm_1
v 0.050000 0.000000 -0.876569
v 0.050000 0.050000 -0.876569
v -0.050000 0.000000 -0.876569
v -0.050000 0.050000 -0.876569
v 0.050000 0.000000 -2.000432
v 0.050000 0.050000 -2.000432
v -0.050000 0.000000 -2.000432
v -0.050000 0.050000 -2.000432
vn -0.0000 -0.0000 1.0000
vn -1.0000 -0.0000 -0.0000
vn -0.0000 -0.0000 -1.0000
vn 1.0000 -0.0000 -0.0000
vn -0.0000 -1.0000 -0.0000
vn -0.0000 1.0000 -0.0000
vt 0.375000 0.000000
vt 0.625000 0.000000
vt 0.625000 0.250000
vt 0.375000 0.250000
vt 0.625000 0.500000
vt 0.375000 0.500000
vt 0.625000 0.750000
vt 0.375000 0.750000
vt 0.625000 1.000000
vt 0.375000 1.000000
vt 0.125000 0.500000
vt 0.125000 0.750000
vt 0.875000 0.500000
vt 0.875000 0.750000
s 0
usemtl Ground2
f 81/164/21 82/165/21 84/166/21 83/167/21
f 83/167/22 84/166/22 88/168/22 87/169/22
f 87/169/23 88/168/23 86/170/23 85/171/23
f 85/171/24 86/170/24 82/172/24 81/173/24
f 83/174/25 87/169/25 85/171/25 81/175/25
f 88/168/26 84/176/26 82/177/26 86/170/26
o Arm_2
v -2.000432 0.000000 0.050000
v -2.000432 0.050000 0.050000
v -2.000432 0.000000 -0.050000
v -2.000432 0.050000 -0.050000
v -0.876569 0.000000 0.050000
v -0.876569 0.050000 0.050000
v -0.876569 0.000000 -0.050000
v -0.876569 0.050000 -0.050000
vn -1.0000 -0.0000 -0.0000
vn -0.0000 -0.0000 -1.0000
vn 1.0000 -0.0000 -0.0000
vn -0.0000 -0.0000 1.0000
vn -0.0000 -1.0000 -0.0000
vn -0.0000 1.0000 -0.0000
vt 0.375000 0.000000
vt 0.625000 0.000000
vt 0.625000 0.250000
vt 0.375000 0.250000
vt 0.625000 0.500000
vt 0.375000 0.500000
vt 0.625000 0.750000
vt 0.375000 0.750000
vt 0.625000 1.000000
vt 0.375000 1.000000
vt 0.125000 0.500000
vt 0.125000 0.750000
vt 0.875000 0.500000
vt 0.875000 0.750000
s 0
usemtl Ground2
f 89/178/27 90/179/27 92/180/27 91/181/27
f 91/181/28 92/180/28 96/182/28 95/183/28
f 95/183/29 96/182/29 94/184/29 93/185/29
f 93/185/30 94/184/30 90/186/30 89/187/30
f 91/188/31 95/183/31 93/185/31 89/189/31
f 96/182/32 92/190/32 90/191/32 94/184/32
o Arm_3
v 0.876569 0.000000 0.050000
v 0.876569 0.050000 0.050000
v 0.876569 0.000000 -0.050000
v 0.876569 0.050000 -0.050000
v 2.000432 0.000000 0.050000
v 2.000432 0.050000 0.050000
v 2.000432 0.000000 -0.050000
v 2.000432 0.050000 -0.050000
vn -1.0000 -0.0000 -0.0000
vn -0.0000 -0.0000 -1.0000
vn 1.0000 -0.0000 -0.0000
vn -0.0000 -0.0000 1.0000
vn -0.0000 -1.0000 -0.0000
vn -0.0000 1.0000 -0.0000
vt 0.375000 0.000000
vt 0.625000 0.000000
vt 0.625000 0.250000
vt 0.375000 0.250000
vt 0.625000 0.500000
vt 0.375000 0.500000
vt 0.625000 0.750000
vt 0.375000 0.750000
vt 0.625000 1.000000
vt 0.375000 1.000000
vt 0.125000 0.500000
vt 0.125000 0.750000
vt 0.875000 0.500000
vt 0.875000 0.750000
s 0
usemtl Ground2
f 97/192/33 98/193/33 100/194/33 99/195/33
f 99/195/34 100/194/34 104/196/34 103/197/34
f 103/197/35 104/196/35 102/198/35 101/199/35
f 101/199/36 102/198/36 98/200/36 97/201/36
f 99/202/37 103/197/37 101/199/37 97/203/37
f 104/196/38 100/204/38 98/205/38 102/198/38
o Arm_4
v 0.050000 0.000000 2.000432
v 0.050000 0.050000 2.000432
v -0.050000 0.000000 2.000432
v -0.050000 0.050000 2.000432
v 0.050000 0.000000 0.876569
v 0.050000 0.050000 0.876569
v -0.050000 0.000000 0.876569
v -0.050000 0.050000 0.876569
vn -0.0000 -0.0000 1.0000
vn -1.0000 -0.0000 -0.0000
vn -0.0000 -0.0000 -1.0000
vn 1.0000 -0.0000 -0.0000
vn -0.0000 -1.0000 -0.0000
vn -0.0000 1.0000 -0.0000
vt 0.375000 0.000000
vt 0.625000 0.000000
vt 0.625000 0.250000
vt 0.375000 0.250000
vt 0.625000 0.500000
vt 0.375000 0.500000
vt 0.625000 0.750000
vt 0.375000 0.750000
vt 0.625000 1.000000
vt 0.375000 1.000000
vt 0.125000 0.500000
vt 0.125000 0.750000
vt 0.875000 0.500000
vt 0.875000 0.750000
s 0
usemtl Ground2
f 105/206/39 106/207/39 108/208/39 107/209/39
f 107/209/40 108/208/40 112/210/40 111/211/40
f 111/211/41 112/210/41 110/212/41 109/213/41
f 109/213/42 110/212/42 106/214/42 105/215/42
f 107/216/43 111/211/43 109/213/43 105/217/43
f 112/210/44 108/218/44 106/219/44 110/212/44
